# xmcd
#
# Track frame offsets:
#	150
#	17904
#	34366
#	54127
#	70491
#	87486
#	104523
#	120912
#	138579
#	159497
#
# Disc length: 2383 seconds
#
# Revision: 0
# Processed by: cddbd v1.5.2PL0 Copyright (c) Steve Scherf et al.
# Submitted via: dBpowerAMP V4.0
#
DISCID=86094d0a
DTITLE=ACUSTICO BRASIL - ACUSTICO BRASIL
DYEAR=2004
DGENRE=MPB
TTITLE0=FIM DE TARDE - C.TELLES
TTITLE1=NAO DIGA NADA - PRENTICE
TTITLE2=I LOVE YOU BABY - ADRIANA
TTITLE3=MEU MEL - MARQ. MOURA
TTITLE4=CASINHA BRANCA - GILSON
TTITLE5=RUA RAMALHETE - TAVITO
TTITLE6=ESCRITO NAS ESTRELAS - T. ESPINDOLA
TTITLE7=FOI DEUS QUEM FEZ VOCE - AMELINHA
TTITLE8=TA COMBINADO ASSIM - ADRIANA
TTITLE9=NOSSA HISTORIA DE AMOR - GILSON
EXTD=
EXTT0=
EXTT1=
EXTT2=
EXTT3=
EXTT4=
EXTT5=
EXTT6=
EXTT7=
EXTT8=
EXTT9=
PLAYORDER=
